<?xml version="1.0" encoding="UTF-8" standalone="no"?>
<!DOCTYPE svg PUBLIC "-//W3C//DTD SVG 1.1//EN" "http://www.w3.org/Graphics/SVG/1.1/DTD/svg11.dtd">
<svg xmlns="http://www.w3.org/2000/svg" xmlns:xlink="http://www.w3.org/1999/xlink" version="1.1" width="999.99996pt" height="999.99996pt" viewBox="0 0 999.99996 999.99996">
<g enable-background="new">
<g>
<g id="Layer-1" data-name="Span">
</g>
<g id="Layer-1" data-name="Artifact">
<path transform="matrix(2.7777777,0,0,-2.7777777,0,999.99996)" d="M 41.25 272.37 C 41.25 297.57 61.678 318 86.877 318 L 270.87 318 C 296.07 318 316.5 297.57 316.5 272.37 L 316.5 89.873 C 316.5 64.674 296.07 44.246 270.87 44.246 L 86.877 44.246 C 61.678 44.246 41.25 64.674 41.25 89.873 Z " fill="#b4b4b4" fill-rule="evenodd"/>
<path transform="matrix(2.7777777,0,0,-2.7777777,0,999.99996)" stroke-width="1" stroke-linecap="butt" stroke-miterlimit="10" stroke-linejoin="miter" fill="none" stroke="#555555" d="M 41.25 272.37 C 41.25 297.57 61.678 318 86.877 318 L 270.87 318 C 296.07 318 316.5 297.57 316.5 272.37 L 316.5 89.873 C 316.5 64.674 296.07 44.246 270.87 44.246 L 86.877 44.246 C 61.678 44.246 41.25 64.674 41.25 89.873 Z "/>
</g>
<clipPath id="cp0">
<path transform="matrix(2.7777777,0,0,-2.7777777,0,999.99996)" d="M 55.104 61.584 L 302.734 61.584 L 302.734 300.574 L 55.104 300.574 Z " fill-rule="evenodd"/>
</clipPath>
<g clip-path="url(#cp0)">
<g id="Layer-1" data-name="P">
<path transform="matrix(2.7777777,0,0,-2.7777777,0,999.99996)" d="M 105.74 164.69 L 252.07 164.69 L 252.07 208.754 L 105.74 208.754 Z " fill-rule="evenodd"/>
</g>
<g id="Layer-1" data-name="Span">
<clipPath id="cp1">
<path transform="matrix(2.7777777,0,0,-2.7777777,0,999.99996)" d="M 55.104 61.584 L 302.734 61.584 L 302.734 300.574 L 55.104 300.574 Z " fill-rule="evenodd"/>
</clipPath>
<g clip-path="url(#cp1)">
<symbol id="font_2_93">
<path d="M .18701172 0 L .18701172 .5834961 L 0 .5834961 L 0 .65722659 L .4609375 .65722659 L .4609375 .5834961 L .27441407 .5834961 L .27441407 0 L .18701172 0 Z "/>
</symbol>
<symbol id="font_2_cd">
<path d="M .14941406 0 C .12207031 0 .09700521 .0052083337 .07421875 .015625 C .051757814 .026041666 .033691408 .041341146 .020019532 .061523439 C .0066731774 .08203125 0 .10725912 0 .13720703 C 0 .17985027 .0133463549 .21223958 .040039064 .234375 C .06673177 .2565104 .10449219 .27148438 .15332031 .27929688 C .20214844 .2874349 .25927735 .29182945 .32470704 .29248048 L .32470704 .3256836 C .32470704 .3663737 .31461589 .39420573 .2944336 .4091797 C .2742513 .42447917 .24869792 .4321289 .21777344 .4321289 C .18489583 .4321289 .15722656 .42382813 .13476563 .40722657 C .11230469 .390625 .10107422 .36442057 .10107422 .32861329 L .021972657 .32861329 C .021972657 .36767579 .030273438 .3992513 .046875 .42333985 C .063802089 .44742839 .08691406 .4650065 .11621094 .47607423 C .14583333 .48714195 .1796875 .49267579 .21777344 .49267579 C .2421875 .49267579 .26546226 .49039714 .28759767 .48583985 C .3100586 .48128257 .33007813 .47298179 .34765626 .4609375 C .3655599 .44889323 .37972007 .43196617 .39013673 .41015626 C .40055339 .38867188 .40576173 .36083985 .40576173 .32666017 L .40576173 .0087890629 L .32958985 .0087890629 L .32617188 .08105469 C .30436198 .056640626 .27897135 .036946615 .25 .021972657 C .22135417 .0073242189 .18782552 0 .14941406 0 M .17089844 .0625 C .20345052 .0625 .23274739 .07014974 .25878907 .08544922 C .28483073 .100748699 .30664063 .12011719 .32421876 .14355469 L .32421876 .24023438 C .2376302 .23925781 .17545574 .2311198 .13769531 .21582031 C .100260417 .20052083 .08154297 .17545574 .08154297 .140625 C .08154297 .11686198 .089029949 .09781901 .104003909 .083496097 C .11930338 .069498699 .14160156 .0625 .17089844 .0625 Z "/>
</symbol>
<symbol id="font_2_158">
<path d="M 0 0 L 0 .47558595 L .076660159 .47558595 L .079589847 .39453126 C .092936199 .41927085 .11149088 .4399414 .1352539 .45654298 C .15901692 .47314454 .1899414 .4814453 .22802735 .4814453 L .23779297 .4814453 L .23779297 .40673829 L .2265625 .40673829 C .20279949 .40673829 .18196614 .40364585 .1640625 .39746095 C .14615886 .39127604 .13053386 .38264976 .1171875 .37158204 C .10384115 .36083985 .09195963 .34830729 .08154297 .33398438 L .08154297 0 L 0 0 Z "/>
</symbol>
<symbol id="font_2_15c">
<path d="M .19726563 0 C .17057292 0 .1451823 .0029296876 .12109375 .0087890629 C .09733073 .0146484379 .07633463 .023925782 .05810547 .036621095 C .0398763 .049316408 .025553385 .06591797 .015136719 .08642578 C .0050455729 .10725912 0 .13232422 0 .1616211 L .07861328 .1616211 C .07861328 .12451172 .09000651 .09830729 .11279297 .08300781 C .13590496 .06803385 .16471355 .060546876 .19921875 .060546876 C .23014324 .060546876 .25553385 .06640625 .27539063 .078125 C .2955729 .09016927 .30566407 .10986328 .30566407 .13720703 C .30566407 .16064453 .29654948 .17805989 .2783203 .18945313 C .26041667 .20084636 .22867839 .21191406 .18310547 .22265625 C .1459961 .23144531 .114746097 .24153646 .08935547 .2529297 C .063964847 .26464845 .044921876 .27929688 .032226564 .296875 C .01953125 .31477867 .013183594 .3372396 .013183594 .3642578 C .013183594 .38541667 .017578125 .40397135 .026367188 .41992188 C .03548177 .4361979 .048014326 .44970704 .063964847 .46044923 C .08024088 .4711914 .09928385 .47916667 .12109375 .484375 C .14290364 .48990885 .1665039 .49267579 .19189453 .49267579 C .21695964 .49267579 .24039714 .4897461 .26220704 .48388673 C .28434245 .47802735 .30371095 .46891276 .3203125 .45654298 C .3372396 .4441732 .35058595 .42822267 .36035157 .4086914 C .3701172 .38916017 .375 .36572267 .375 .3383789 L .29589845 .3383789 C .29589845 .37223307 .28580729 .39615885 .265625 .41015626 C .2454427 .42415367 .22086589 .43115235 .19189453 .43115235 C .16259766 .43115235 .13883464 .425944 .12060547 .41552735 C .102376308 .4051107 .09326172 .38883464 .09326172 .36669923 C .09326172 .3540039 .09733073 .34326173 .10546875 .33447267 C .11360677 .3256836 .12727864 .31770835 .14648438 .31054688 C .16569011 .30371095 .19156902 .29638673 .2241211 .28857423 C .25960288 .2801107 .28938804 .27001954 .31347657 .25830079 C .3375651 .24658203 .3556315 .23144531 .36767579 .21289063 C .38004557 .19466146 .38623048 .17122396 .38623048 .14257813 C .38623048 .11783854 .38134767 .096354167 .37158204 .078125 C .36214195 .060221357 .34879557 .045410158 .33154298 .033691408 C .31461589 .022298178 .29459635 .013834636 .27148438 .008300781 C .24869792 .002766927 .22395833 0 .19726563 0 Z "/>
</symbol>
<symbol id="font_2_127">
<path d="M 0 0 L 0 .65722659 L .08154297 .65722659 L .08154297 .25146485 L .29638673 .47558595 L .39257813 .47558595 L .17773438 .2529297 L .41210938 0 L .31054688 0 L .08154297 .24707031 L .08154297 0 L 0 0 Z "/>
</symbol>
<symbol id="font_2_185">
<path d="M .05126953 0 L .05126953 .06738281 L .091308597 .06738281 C .10986328 .06738281 .12548828 .07242838 .1381836 .08251953 C .15120442 .092285159 .16227214 .10872396 .17138672 .13183594 L .1899414 .17480469 L 0 .6503906 L .08642578 .6503906 L .23339844 .26123048 L .36914063 .6503906 L .45214845 .6503906 L .2734375 .17480469 L .25097657 .1171875 C .23990886 .08886719 .22802735 .06608073 .21533203 .048828126 C .20296224 .03157552 .18766277 .019205729 .1694336 .01171875 C .15120442 .00390625 .12792969 0 .099609378 0 L .05126953 0 Z "/>
</symbol>
<symbol id="font_2_40">
<path d="M .31445313 0 C .24609375 0 .18847656 .014160156 .14160156 .04248047 C .095052089 .07080078 .059733076 .110188808 .03564453 .16064453 C .011881511 .21142578 0 .27018229 0 .33691407 C 0 .40397135 .011881511 .46289063 .03564453 .5136719 C .059733076 .5644531 .095052089 .6040039 .14160156 .6323242 C .18847656 .66064456 .24609375 .6748047 .31445313 .6748047 C .34830729 .6748047 .38069663 .67041018 .4116211 .6616211 C .44254557 .65315756 .47054038 .6401367 .49560548 .6225586 C .5206706 .60530599 .5411784 .5834961 .5571289 .5571289 C .57340499 .5307617 .5833333 .49967448 .58691409 .4638672 L .49902345 .4638672 C .49576823 .48893229 .48632813 .51188156 .47070313 .53271487 C .45540367 .5538737 .43440757 .5708008 .40771485 .5834961 C .38134767 .5965169 .3499349 .60302737 .31347657 .60302737 C .2607422 .60302737 .21777344 .5909831 .18457031 .56689456 C .15136719 .54313156 .12711589 .51123049 .111816409 .4711914 C .09651693 .43115235 .08886719 .38639323 .08886719 .33691407 C .08886719 .2877604 .09651693 .24316406 .111816409 .203125 C .1274414 .16341146 .15185547 .13183594 .1850586 .10839844 C .21826172 .08496094 .26139323 .07324219 .31445313 .07324219 C .36035157 .07324219 .39794923 .08138021 .4272461 .09765625 C .4568685 .11425781 .47884117 .13720703 .49316407 .1665039 C .5078125 .1961263 .5154622 .23014324 .5161133 .2685547 L .32421876 .2685547 L .32421876 .3413086 L .6020508 .3413086 L .6020508 .29003907 C .6020508 .23307292 .5913086 .18277996 .5698242 .13916016 C .54866537 .09554037 .51676437 .061360677 .4741211 .036621095 C .43180339 .012207031 .37858073 0 .31445313 0 Z "/>
</symbol>
<use xlink:href="#font_2_93" transform="matrix(100.06666,0,0,-100.06666,294.60169,514.1388)" fill="#ffffff"/>
<use xlink:href="#font_2_cd" transform="matrix(100.06666,0,0,-100.06666,339.2283,515.0183)" fill="#ffffff"/>
<use xlink:href="#font_2_158" transform="matrix(100.06666,0,0,-100.06666,395.05107,514.1388)" fill="#ffffff"/>
<use xlink:href="#font_2_15c" transform="matrix(100.06666,0,0,-100.06666,424.38975,515.0183)" fill="#ffffff"/>
<use xlink:href="#font_2_127" transform="matrix(100.06666,0,0,-100.06666,475.9049,514.1388)" fill="#ffffff"/>
<use xlink:href="#font_2_185" transform="matrix(100.06666,0,0,-100.06666,516.7708,531.6309)" fill="#ffffff"/>
<use xlink:href="#font_2_93" transform="matrix(100.06666,0,0,-100.06666,558.97787,514.1388)" fill="#ffffff"/>
<use xlink:href="#font_2_40" transform="matrix(100.06666,0,0,-100.06666,608.4053,515.0183)" fill="#ffffff"/>
</g>
<clipPath id="cp3">
<path transform="matrix(2.7777777,0,0,-2.7777777,0,999.99996)" d="M 55.104 61.584 L 302.734 61.584 L 302.734 300.574 L 55.104 300.574 Z " fill-rule="evenodd"/>
</clipPath>
<g clip-path="url(#cp3)">
<symbol id="font_2_49">
<path d="M 0 0 L 0 .65722659 L .087890628 .65722659 L .087890628 0 L 0 0 Z "/>
</symbol>
<use xlink:href="#font_2_49" transform="matrix(100.06666,0,0,-100.06666,682.79397,514.1388)" fill="#ffffff"/>
</g>
</g>
</g>
</g>
</g>
</svg>
